<svg width="512" height="512" viewBox="0 0 512 512" fill="none" xmlns="http://www.w3.org/2000/svg">
  <circle cx="256" cy="256" r="248" fill="#F6BE4F"/>
  <text x="86" y="372" fill="white" font-family="Georgia, 'Times New Roman', serif" font-size="318" font-weight="700">C</text>
  <path d="M292 224C323 176 368 147 420 136C390 159 369 188 356 222C378 204 404 193 432 190C411 205 394 222 381 244C409 226 441 220 477 226C442 236 414 253 393 277C369 305 344 329 306 332C276 334 251 321 239 299C260 308 282 300 292 278C300 260 297 241 292 224Z" fill="white"/>
  <path d="M323 207C301 177 291 147 298 116C316 148 339 176 369 199C349 193 333 195 323 207Z" fill="white"/>
  <path d="M336 201C316 176 307 151 310 126C329 157 354 181 386 198C365 193 348 194 336 201Z" fill="white" opacity="0.96"/>
  <path d="M405 259C432 242 459 238 489 248L450 265L434 287C428 274 419 264 405 259Z" fill="white"/>
  <path d="M475 246L510 230L484 260L475 246Z" fill="white"/>
  <circle cx="439" cy="226" r="7" fill="#F6BE4F"/>
</svg>
