<svg width="512" height="512" viewBox="0 0 512 512" fill="none" xmlns="http://www.w3.org/2000/svg">
  <circle cx="256" cy="256" r="244" fill="#F6BE4F"/>
  <path d="M233.5 363.9C175.1 363.9 128 316.8 128 258.4C128 199.9 175.1 152.8 233.5 152.8C266.8 152.8 296.5 168.1 315.9 192.2C328.8 208.4 325.9 232.1 309.4 244.8C293.2 257.4 269.8 254.5 257.1 238.4C251.4 231.3 242.8 226.8 233.5 226.8C216.1 226.8 202 241 202 258.4C202 275.7 216.1 289.9 233.5 289.9C242.8 289.9 251.4 285.4 257.1 278.3C269.8 262.2 293.2 259.3 309.4 271.9C325.9 284.6 328.8 308.3 315.9 324.5C296.5 348.6 266.8 363.9 233.5 363.9Z" fill="white"/>
  <path d="M326 147C356 184 384 207 417 218C386 224 358 242 336 272C318 298 304 329 287 371C289 321 299 276 318 238C337 201 334 174 326 147Z" fill="white"/>
  <path d="M337 145C352 168 371 187 395 202C371 198 348 183 337 145Z" fill="white"/>
  <path d="M389 218C420 202 445 204 462 225C432 214 410 217 389 218Z" fill="white"/>
  <path d="M451 222L488 205L458 236L451 222Z" fill="white"/>
</svg>
